ffmpeg started on 2016-12-06 at 15:15:11
Report written to "Output/x264/results/ffmpeg/crowd_run_2160p50medium1500k.log"
Command line:
Tools/ffmpeg/ffmpeg -benchmark -y -i Input/y4m/crowd_run_2160p50.y4m -c:v libx264 -preset medium -b:v 1500k -an Output/x264/encoded/crowd_run_2160p50medium1500k.mkv
ffmpeg version N-82227-gdb23fde Copyright (c) 2000-2016 the FFmpeg developers
  built with gcc 5.4.0 (Ubuntu 5.4.0-6ubuntu1~16.04.2) 20160609
  configuration: --prefix=/home/jaroslav/ffmpeg_build --pkg-config-flags=--static --extra-cflags=-I/home/jaroslav/ffmpeg_build/include --extra-ldflags=-L/home/jaroslav/ffmpeg_build/lib --bindir=/home/jaroslav/bin --enable-gpl --enable-libass --enable-libfdk-aac --enable-libfreetype --enable-libmp3lame --enable-libopus --enable-libtheora --enable-libvorbis --enable-libvpx --enable-libx264 --enable-libx265 --enable-nvenc --enable-libmfx --enable-libxvid --enable-libgsm --enable-libopencore-amrnb --enable-version3 --enable-nonfree
  libavutil      55. 35.100 / 55. 35.100
  libavcodec     57. 66.101 / 57. 66.101
  libavformat    57. 57.100 / 57. 57.100
  libavdevice    57.  2.100 / 57.  2.100
  libavfilter     6. 66.100 /  6. 66.100
  libswscale      4.  3.100 /  4.  3.100
  libswresample   2.  4.100 /  2.  4.100
  libpostproc    54.  2.100 / 54.  2.100
Input #0, yuv4mpegpipe, from 'Input/y4m/crowd_run_2160p50.y4m':
  Duration: 00:00:10.00, start: 0.000000, bitrate: 4976642 kb/s
    Stream #0:0: Video: rawvideo (I420 / 0x30323449), yuv420p(progressive), 3840x2160, SAR 1:1 DAR 16:9, 50 fps, 50 tbr, 50 tbn, 50 tbc
[libx264 @ 0x3be81c0] using SAR=1/1
[libx264 @ 0x3be81c0] using cpu capabilities: MMX2 SSE2Fast SSSE3 SSE4.2 AVX FMA3 AVX2 LZCNT BMI2
[libx264 @ 0x3be81c0] profile High, level 5.2
[libx264 @ 0x3be81c0] 264 - core 148 - H.264/MPEG-4 AVC codec - Copyleft 2003-2016 - http://www.videolan.org/x264.html - options: cabac=1 ref=3 deblock=1:0:0 analyse=0x3:0x113 me=hex subme=7 psy=1 psy_rd=1.00:0.00 mixed_ref=1 me_range=16 chroma_me=1 trellis=1 8x8dct=1 cqm=0 deadzone=21,11 fast_pskip=1 chroma_qp_offset=-2 threads=6 lookahead_threads=1 sliced_threads=0 nr=0 decimate=1 interlaced=0 bluray_compat=0 constrained_intra=0 bframes=3 b_pyramid=2 b_adapt=1 b_bias=0 direct=1 weightb=1 open_gop=0 weightp=2 keyint=250 keyint_min=25 scenecut=40 intra_refresh=0 rc_lookahead=40 rc=abr mbtree=1 bitrate=1500 ratetol=1.0 qcomp=0.60 qpmin=0 qpmax=69 qpstep=4 ip_ratio=1.40 aq=1:1.00
Output #0, matroska, to 'Output/x264/encoded/crowd_run_2160p50medium1500k.mkv':
  Metadata:
    encoder         : Lavf57.57.100
    Stream #0:0: Video: h264 (libx264) (H264 / 0x34363248), yuv420p, 3840x2160 [SAR 1:1 DAR 16:9], q=-1--1, 1500 kb/s, 50 fps, 1k tbn, 50 tbc
    Metadata:
      encoder         : Lavc57.66.101 libx264
    Side data:
      cpb: bitrate max/min/avg: 0/0/1500000 buffer size: 0 vbv_delay: -1
Stream mapping:
  Stream #0:0 -> #0:0 (rawvideo (native) -> h264 (libx264))
Press [q] to stop, [?] for help
frame=   19 fps=0.0 q=0.0 size=       0kB time=00:00:00.00 bitrate=N/A speed=   0x    frame=   33 fps= 32 q=0.0 size=       0kB time=00:00:00.00 bitrate=N/A speed=   0x    frame=   45 fps= 29 q=0.0 size=       0kB time=00:00:00.00 bitrate=N/A speed=   0x    frame=   47 fps= 13 q=0.0 size=       0kB time=00:00:00.00 bitrate=N/A speed=   0x    frame=   54 fps= 13 q=51.0 size=       1kB time=00:00:00.02 bitrate= 279.6kbits/s speed=0.00493x    frame=   61 fps= 13 q=62.0 size=       1kB time=00:00:00.16 bitrate=  36.5kbits/s speed=0.0337x    frame=   68 fps= 13 q=68.0 size=       1kB time=00:00:00.30 bitrate=  19.5kbits/s speed=0.0569x    frame=   74 fps= 12 q=68.0 size=       1kB time=00:00:00.42 bitrate=  13.9kbits/s speed=0.0707x    frame=   84 fps= 13 q=68.0 size=       1kB time=00:00:00.62 bitrate=   9.5kbits/s speed=0.0951x    frame=   93 fps= 13 q=67.0 size=       1kB time=00:00:00.80 bitrate=   7.3kbits/s speed=0.114x    frame=  101 fps= 13 q=67.0 size=       1kB time=00:00:00.96 bitrate=   6.1kbits/s speed=0.127x    frame=  110 fps= 14 q=66.0 size=       1kB time=00:00:01.14 bitrate=   5.1kbits/s speed=0.141x    frame=  118 fps= 14 q=66.0 size=       1kB time=00:00:01.30 bitrate=   4.5kbits/s speed=0.151x    frame=  127 fps= 13 q=65.0 size=       1kB time=00:00:01.48 bitrate=   4.0kbits/s speed=0.156x    frame=  136 fps= 14 q=65.0 size=       1kB time=00:00:01.66 bitrate=   3.5kbits/s speed=0.166x    frame=  139 fps= 13 q=65.0 size=       1kB time=00:00:01.72 bitrate=   3.4kbits/s speed=0.16x    frame=  148 fps= 13 q=64.0 size=       1kB time=00:00:01.90 bitrate=   3.1kbits/s speed=0.168x    frame=  154 fps= 13 q=64.0 size=       1kB time=00:00:02.02 bitrate=   2.9kbits/s speed=0.171x    frame=  159 fps= 13 q=64.0 size=       1kB time=00:00:02.12 bitrate=   2.8kbits/s speed=0.17x    frame=  168 fps= 13 q=64.0 size=       1kB time=00:00:02.30 bitrate=   2.6kbits/s speed=0.174x    frame=  177 fps= 13 q=64.0 size=       1kB time=00:00:02.48 bitrate=   2.4kbits/s speed=0.181x    frame=  186 fps= 13 q=64.0 size=       1kB time=00:00:02.66 bitrate=   2.2kbits/s speed=0.187x    frame=  195 fps= 13 q=64.0 size=       1kB time=00:00:02.84 bitrate=   2.1kbits/s speed=0.192x    frame=  202 fps= 13 q=64.0 size=       1kB time=00:00:02.98 bitrate=   2.0kbits/s speed=0.195x    frame=  208 fps= 13 q=64.0 size=       1kB time=00:00:03.10 bitrate=   1.9kbits/s speed=0.195x    frame=  217 fps= 13 q=64.0 size=       1kB time=00:00:03.28 bitrate=   1.8kbits/s speed=0.199x    frame=  226 fps= 13 q=64.0 size=       1kB time=00:00:03.46 bitrate=   1.7kbits/s speed=0.204x    frame=  232 fps= 13 q=64.0 size=       1kB time=00:00:03.58 bitrate=   1.6kbits/s speed=0.203x    frame=  241 fps= 13 q=64.0 size=       1kB time=00:00:03.76 bitrate=   1.6kbits/s speed=0.207x    frame=  249 fps= 13 q=64.0 size=       1kB time=00:00:03.92 bitrate=   1.5kbits/s speed=0.21x    frame=  258 fps= 13 q=64.0 size=       1kB time=00:00:04.10 bitrate=   1.4kbits/s speed=0.214x    frame=  263 fps= 13 q=64.0 size=       1kB time=00:00:04.20 bitrate=   1.4kbits/s speed=0.212x    frame=  270 fps= 13 q=64.0 size=       1kB time=00:00:04.34 bitrate=   1.4kbits/s speed=0.213x    frame=  277 fps= 13 q=64.0 size=       1kB time=00:00:04.48 bitrate=   1.3kbits/s speed=0.215x    frame=  283 fps= 13 q=64.0 size=       1kB time=00:00:04.60 bitrate=   1.3kbits/s speed=0.209x    frame=  288 fps= 13 q=64.0 size=       1kB time=00:00:04.70 bitrate=   1.2kbits/s speed=0.208x    frame=  296 fps= 13 q=61.0 size=       1kB time=00:00:04.86 bitrate=   1.2kbits/s speed=0.21x    frame=  297 fps= 12 q=64.0 size=       1kB time=00:00:04.88 bitrate=   1.2kbits/s speed=0.202x    frame=  306 fps= 12 q=64.0 size=     956kB time=00:00:05.06 bitrate=1546.7kbits/s speed=0.205x    frame=  312 fps= 12 q=64.0 size=     956kB time=00:00:05.18 bitrate=1510.9kbits/s speed=0.205x    frame=  317 fps= 12 q=64.0 size=     956kB time=00:00:05.28 bitrate=1482.3kbits/s speed=0.205x    frame=  322 fps= 12 q=64.0 size=     956kB time=00:00:05.38 bitrate=1454.8kbits/s speed=0.205x    frame=  327 fps= 12 q=64.0 size=     956kB time=00:00:05.48 bitrate=1428.2kbits/s speed=0.204x    frame=  333 fps= 12 q=64.0 size=     956kB time=00:00:05.60 bitrate=1397.6kbits/s speed=0.203x    frame=  338 fps= 12 q=64.0 size=     956kB time=00:00:05.70 bitrate=1373.1kbits/s speed=0.201x    frame=  341 fps= 12 q=64.0 size=     956kB time=00:00:05.76 bitrate=1358.8kbits/s speed=0.199x    frame=  346 fps= 12 q=64.0 size=     956kB time=00:00:05.86 bitrate=1335.6kbits/s speed=0.196x    frame=  352 fps= 12 q=64.0 size=     956kB time=00:00:05.98 bitrate=1308.8kbits/s speed=0.197x    frame=  358 fps= 12 q=64.0 size=     956kB time=00:00:06.10 bitrate=1283.1kbits/s speed=0.197x    frame=  361 fps= 11 q=64.0 size=     956kB time=00:00:06.16 bitrate=1270.6kbits/s speed=0.195x    frame=  366 fps= 11 q=64.0 size=     956kB time=00:00:06.26 bitrate=1250.3kbits/s speed=0.195x    frame=  372 fps= 11 q=64.0 size=     956kB time=00:00:06.38 bitrate=1226.8kbits/s speed=0.195x    frame=  377 fps= 11 q=64.0 size=     956kB time=00:00:06.48 bitrate=1207.8kbits/s speed=0.195x    frame=  379 fps= 11 q=64.0 size=     956kB time=00:00:06.52 bitrate=1200.4kbits/s speed=0.193x    frame=  381 fps= 11 q=64.0 size=     956kB time=00:00:06.56 bitrate=1193.1kbits/s speed=0.19x    frame=  384 fps= 11 q=64.0 size=     956kB time=00:00:06.62 bitrate=1182.3kbits/s speed=0.188x    frame=  394 fps= 11 q=64.0 size=     956kB time=00:00:06.82 bitrate=1147.6kbits/s speed=0.189x    frame=  400 fps= 11 q=64.0 size=     956kB time=00:00:06.94 bitrate=1127.8kbits/s speed=0.19x    frame=  408 fps= 11 q=64.0 size=     956kB time=00:00:07.10 bitrate=1102.4kbits/s speed=0.192x    frame=  416 fps= 11 q=64.0 size=     956kB time=00:00:07.26 bitrate=1078.1kbits/s speed=0.193x    frame=  425 fps= 11 q=64.0 size=     956kB time=00:00:07.44 bitrate=1052.0kbits/s speed=0.195x    frame=  432 fps= 11 q=64.0 size=     956kB time=00:00:07.58 bitrate=1032.6kbits/s speed=0.196x    frame=  441 fps= 11 q=64.0 size=     956kB time=00:00:07.76 bitrate=1008.6kbits/s speed=0.198x    frame=  448 fps= 11 q=64.0 size=     956kB time=00:00:07.90 bitrate= 990.8kbits/s speed=0.199x    frame=  457 fps= 11 q=64.0 size=     956kB time=00:00:08.08 bitrate= 968.7kbits/s speed=0.201x    frame=  466 fps= 11 q=64.0 size=     956kB time=00:00:08.26 bitrate= 947.6kbits/s speed=0.203x    frame=  474 fps= 11 q=64.0 size=     956kB time=00:00:08.42 bitrate= 929.6kbits/s speed=0.204x    frame=  482 fps= 12 q=64.0 size=     956kB time=00:00:08.58 bitrate= 912.3kbits/s speed=0.205x    frame=  490 fps= 12 q=64.0 size=     956kB time=00:00:08.74 bitrate= 895.6kbits/s speed=0.207x    frame=  498 fps= 12 q=64.0 size=     956kB time=00:00:08.90 bitrate= 879.5kbits/s speed=0.208x    frame=  500 fps= 11 q=-1.0 Lsize=    1880kB time=00:00:09.94 bitrate=1549.6kbits/s speed=0.22x    
video:1876kB audio:0kB subtitle:0kB other streams:0kB global headers:0kB muxing overhead: 0.225062%
bench: utime=107.480s
bench: maxrss=1846420kB
[libx264 @ 0x3be81c0] frame I:2     Avg QP:48.59  size: 55400
[libx264 @ 0x3be81c0] frame P:126   Avg QP:50.98  size: 11666
[libx264 @ 0x3be81c0] frame B:372   Avg QP:50.99  size:   913
[libx264 @ 0x3be81c0] consecutive B-frames:  0.8%  0.0%  0.0% 99.2%
[libx264 @ 0x3be81c0] mb I  I16..4: 45.1% 54.2%  0.7%
[libx264 @ 0x3be81c0] mb P  I16..4: 12.1%  1.9%  0.0%  P16..4: 10.0%  0.5%  4.7%  0.0%  0.0%    skip:70.8%
[libx264 @ 0x3be81c0] mb B  I16..4:  0.0%  0.0%  0.0%  B16..8:  2.8%  0.0%  0.0%  direct: 0.0%  skip:97.2%  L0:20.2% L1:79.8% BI: 0.0%
[libx264 @ 0x3be81c0] final ratefactor: 55.95
[libx264 @ 0x3be81c0] 8x8 transform intra:17.5% inter:99.5%
[libx264 @ 0x3be81c0] coded y,uvDC,uvAC intra: 1.9% 11.6% 0.7% inter: 0.1% 0.4% 0.0%
[libx264 @ 0x3be81c0] i16 v,h,dc,p: 78% 17%  4%  1%
[libx264 @ 0x3be81c0] i8 v,h,dc,ddl,ddr,vr,hd,vl,hu: 12%  8% 65%  4%  2%  2%  2%  2%  2%
[libx264 @ 0x3be81c0] i4 v,h,dc,ddl,ddr,vr,hd,vl,hu: 32% 17% 17%  8%  7%  6%  5%  4%  4%
[libx264 @ 0x3be81c0] i8c dc,h,v,p: 99%  0%  0%  0%
[libx264 @ 0x3be81c0] Weighted P-Frames: Y:1.6% UV:0.8%
[libx264 @ 0x3be81c0] ref P L0: 73.3%  0.4% 15.3% 10.9%  0.2%
[libx264 @ 0x3be81c0] ref B L0: 94.3%  3.0%  2.7%
[libx264 @ 0x3be81c0] ref B L1: 96.0%  4.0%
[libx264 @ 0x3be81c0] kb/s:1536.45
